<?xml version="1.0" encoding="utf-8"?>
<!-- Generated by IcoMoon.io -->
<!DOCTYPE svg PUBLIC "-//W3C//DTD SVG 1.1//EN" "http://www.w3.org/Graphics/SVG/1.1/DTD/svg11.dtd">
<svg version="1.1" xmlns="http://www.w3.org/2000/svg" xmlns:xlink="http://www.w3.org/1999/xlink" width="32" height="32" viewBox="0 0 32 32">
<path fill="#0079c4" d="M1.2 0h29.6c0.663 0 1.2 0.537 1.2 1.2v29.6c0 0.663-0.537 1.2-1.2 1.2h-29.6c-0.663 0-1.2-0.537-1.2-1.2v-29.6c0-0.663 0.537-1.2 1.2-1.2z"></path>
<path fill="#fff" d="M23.064 8.936c-1.889-1.889-4.397-2.936-7.064-2.936-5.508 0-10 4.492-10 10s4.492 10 10 10c5.508 0 10-4.492 10-10 0-2.667-1.047-5.175-2.936-7.064v0zM16 22.492c-3.016 0-5.476-2.46-5.476-5.476 0-2.556 1.714-4.269 3.222-5.778 1-1 1.969-1.969 2.254-3.047 0.286 1.080 1.238 2.047 2.254 3.047 1.508 1.508 3.222 3.222 3.222 5.778 0 3.016-2.46 5.476-5.476 5.476v0z"></path>
</svg>
