<?xml version="1.0" encoding="UTF-8" standalone="no"?>
<svg width="80px" height="80px" viewBox="0 0 80 80" version="1.1" xmlns="http://www.w3.org/2000/svg" xmlns:xlink="http://www.w3.org/1999/xlink" xmlns:sketch="http://www.bohemiancoding.com/sketch/ns">
    <!-- Generator: Sketch 3.5.2 (25235) - http://www.bohemiancoding.com/sketch -->
    <title>Group</title>
    <desc>Created with Sketch.</desc>
    <defs></defs>
    <g id="Page-1" stroke="none" stroke-width="1" fill="none" fill-rule="evenodd" sketch:type="MSPage">
        <g id="HTML5" sketch:type="MSLayerGroup">
            <g id="Page-1" sketch:type="MSShapeGroup">
                <g id="HTML5">
                    <g id="Page-1">
                        <g id="1200">
                            <g id="Menu">
                                <g id="Website">
                                    <g id="bg-+-HTML5-Logo">
                                        <g id="Group">
                                            <rect id="Rectangle-2" fill="#DBE1E7" x="0" y="0" width="80" height="80" rx="3"></rect>
                                            <g id="HTML5-Logo" transform="translate(16.000000, 13.333333)">
                                                <g id="Shape">
                                                    <path d="M4.43657143,48.0099676 L0.0834725275,0.0802588997 L47.9165275,0.0802588997 L43.5588132,48.0024595 L23.9707253,53.3333333 L4.43657143,48.0099676 L4.43657143,48.0099676 L4.43657143,48.0099676 Z" fill="#E44D26"></path>
                                                    <path d="M24,49.2586408 L39.8281319,44.9509385 L43.5520879,3.9992233 L24,3.9992233 L24,49.2586408 L24,49.2586408 L24,49.2586408 Z" fill="#F16529"></path>
                                                    <path d="M24,21.7756634 L16.076044,21.7756634 L15.5287912,15.7561165 L24,15.7561165 L24,9.8776699 L23.9792967,9.8776699 L8.98443956,9.8776699 L9.12778022,11.4547573 L10.5995604,27.6539806 L24,27.6539806 L24,21.7756634 L24,21.7756634 L24,21.7756634 Z" fill="#EBEBEB"></path>
                                                    <path d="M24,37.0424595 L23.9737582,37.0493204 L17.3046593,35.2815534 L16.8783297,30.5932686 L13.6376703,30.5932686 L10.8671209,30.5932686 L11.7060659,39.8231715 L23.9724396,43.1659547 L24,43.1584466 L24,37.0424595 L24,37.0424595 L24,37.0424595 Z" fill="#EBEBEB"></path>
                                                    <path d="M23.9792967,21.7756634 L23.9792967,27.6539806 L31.3530989,27.6539806 L30.658022,35.2777994 L23.9792967,37.0473786 L23.9792967,43.1631068 L36.2554286,39.8231715 L36.3454945,38.8300324 L37.7526593,23.3541748 L37.8987692,21.7756634 L36.2850989,21.7756634 L23.9792967,21.7756634 L23.9792967,21.7756634 L23.9792967,21.7756634 Z" fill="#FFFFFF"></path>
                                                    <path d="M23.9792967,9.8776699 L23.9792967,13.5286731 L23.9792967,15.7417476 L23.9792967,15.7561165 L38.4243956,15.7561165 L38.4243956,15.7561165 L38.4436484,15.7561165 L38.5637802,14.434822 L38.8366154,11.4547573 L38.9798242,9.8776699 L23.9792967,9.8776699 L23.9792967,9.8776699 L23.9792967,9.8776699 Z" fill="#FFFFFF"></path>
                                                </g>
                                            </g>
                                        </g>
                                    </g>
                                </g>
                            </g>
                        </g>
                    </g>
                </g>
            </g>
        </g>
    </g>
</svg>