<?xml version="1.0" encoding="utf-8"?>
<!-- Generated by IcoMoon.io -->
<!DOCTYPE svg PUBLIC "-//W3C//DTD SVG 1.1//EN" "http://www.w3.org/Graphics/SVG/1.1/DTD/svg11.dtd">
<svg version="1.1" xmlns="http://www.w3.org/2000/svg" xmlns:xlink="http://www.w3.org/1999/xlink" width="28" height="32" viewBox="0 0 28 32">
<path fill="#fc3026" d="M0.088 0.205l2.545 28.557 11.427 3.172 11.455-3.178 2.547-28.552h-27.974zM23.334 26.943l-9.21 2.552v0.013l-0.024-0.013-0.025 0.013v-0.013l-9.205-2.552-2.177-24.4h22.82l-2.18 24.4zM18.376 16.634l-0.405 4.543-3.916 1.056-3.899-1.053-0.25-2.794h-3.514l0.491 5.5 7.194 1.988 7.167-1.988 0.963-10.746h-12.765l-0.319-3.587h13.404l0.314-3.504h-17.546l0.946 10.591 12.136-0.006z"></path>
</svg>
