<?xml version="1.0" encoding="utf-8"?>
<!-- Generated by IcoMoon.io -->
<!DOCTYPE svg PUBLIC "-//W3C//DTD SVG 1.1//EN" "http://www.w3.org/Graphics/SVG/1.1/DTD/svg11.dtd">
<svg version="1.1" xmlns="http://www.w3.org/2000/svg" xmlns:xlink="http://www.w3.org/1999/xlink" width="32" height="32" viewBox="0 0 32 32">
<path fill="#fc8c2c" d="M1.2 0h29.6c0.663 0 1.2 0.537 1.2 1.2v29.6c0 0.663-0.537 1.2-1.2 1.2h-29.6c-0.663 0-1.2-0.537-1.2-1.2v-29.6c0-0.663 0.537-1.2 1.2-1.2z"></path>
<path fill="#fff" d="M9.177 16.097l-0.41-0.41c-1.272-1.274-1.666-3.095-1.184-4.708-1.272-0.288-2.222-1.427-2.222-2.788 0-1.578 1.278-2.858 2.854-2.858 1.419 0.001 2.595 1.037 2.816 2.395 1.54-0.362 3.225 0.059 4.425 1.261l0.164 0.164-2.106 2.108-0.163-0.164c-0.683-0.684-1.791-0.684-2.475 0.001-0.686 0.687-0.685 1.8-0.004 2.481l4.746 4.748-2.104 2.108-4.336-4.338zM11.533 13.74l4.747-4.748c1.268-1.269 3.074-1.668 4.68-1.196 0.192-1.391 1.385-2.463 2.827-2.463 1.576 0 2.854 1.279 2.854 2.858 0 1.45-1.080 2.649-2.478 2.833 0.46 1.602 0.059 3.398-1.2 4.659l-0.164 0.165-2.105-2.109 0.163-0.163c0.684-0.684 0.684-1.794 0.001-2.478-0.681-0.681-1.787-0.683-2.473 0.004l-4.745 4.747-2.106-2.108zM21.016 24.379c-1.619 0.499-3.454 0.107-4.736-1.177l-0.161-0.161 2.104-2.109 0.162 0.162c0.684 0.684 1.793 0.684 2.476 0.001 0.681-0.683 0.682-1.789-0.004-2.476l-4.74-4.75 2.106-2.107 4.74 4.75c1.211 1.212 1.629 2.917 1.252 4.468 1.386 0.195 2.452 1.388 2.452 2.83 0 1.579-1.278 2.857-2.854 2.857-1.382 0-2.534-0.982-2.797-2.288zM20.195 18.456l-4.739 4.749c-1.216 1.218-2.93 1.632-4.486 1.245-0.291 1.27-1.426 2.215-2.782 2.216-1.577 0-2.854-1.279-2.854-2.857 0-1.351 0.937-2.484 2.195-2.781-0.398-1.566 0.014-3.295 1.238-4.52l0.161-0.161 2.106 2.107-0.163 0.162c-0.683 0.685-0.683 1.793 0.001 2.478 0.686 0.687 1.797 0.685 2.478 0.003l4.741-4.75 2.104 2.109z"></path>
</svg>
