<?xml version="1.0" encoding="utf-8"?>
<!-- Generated by IcoMoon.io -->
<!DOCTYPE svg PUBLIC "-//W3C//DTD SVG 1.1//EN" "http://www.w3.org/Graphics/SVG/1.1/DTD/svg11.dtd">
<svg version="1.1" xmlns="http://www.w3.org/2000/svg" xmlns:xlink="http://www.w3.org/1999/xlink" width="32" height="32" viewBox="0 0 32 32">
<path fill="#fc8c2c" d="M8.481 8.742c1.007-1.005 2.638-1.005 3.644-0.001l0.24 0.241 3.1-3.103-0.241-0.241c-1.768-1.77-4.248-2.387-6.515-1.855-0.325-1.999-2.058-3.524-4.145-3.526-2.321 0-4.2 1.884-4.201 4.206 0 2.004 1.398 3.679 3.271 4.104-0.709 2.375-0.13 5.053 1.743 6.93l6.987 6.989 3.098-3.106-6.986-6.989c-1.002-0.999-1.004-2.639 0.006-3.649v0zM31.686 4.464c0.001-2.323-1.88-4.206-4.2-4.206-2.124 0-3.88 1.578-4.161 3.626-2.363-0.695-5.027-0.108-6.893 1.761l-6.986 6.989 3.101 3.105 6.987-6.988c1-1.011 2.627-1.009 3.64-0.008 1.005 1.007 1.005 2.641-0.001 3.648l-0.239 0.24 3.098 3.107 0.241-0.244c1.853-1.857 2.443-4.499 1.768-6.859 2.058-0.273 3.646-2.036 3.646-4.171v0zM28.116 23.29c0.556-2.28-0.061-4.794-1.843-6.577l-6.976-6.991-3.101 3.101 6.977 6.993c1.010 1.012 1.007 2.641 0.006 3.643-1.005 1.006-2.637 1.006-3.644-0.001l-0.237-0.239-3.093 3.107 0.237 0.237c1.886 1.889 4.587 2.467 6.973 1.732 0.387 1.923 2.084 3.368 4.12 3.368 2.317 0 4.2-1.881 4.2-4.205-0.008-2.125-1.578-3.88-3.619-4.168v0zM19.102 16.47l-6.977 6.991c-1.003 1.005-2.639 1.007-3.647-0.004-1.007-1.008-1.007-2.64-0.001-3.647l0.239-0.238-3.1-3.102-0.237 0.236c-1.802 1.804-2.41 4.35-1.823 6.653-1.852 0.44-3.231 2.105-3.231 4.093-0.001 2.324 1.881 4.2 4.2 4.2 1.997-0.001 3.667-1.394 4.096-3.265 2.29 0.572 4.814-0.040 6.604-1.83l6.977-6.989-3.1-3.1z"></path>
</svg>
