<?xml version="1.0" encoding="utf-8"?>
<!-- Generated by IcoMoon.io -->
<!DOCTYPE svg PUBLIC "-//W3C//DTD SVG 1.1//EN" "http://www.w3.org/Graphics/SVG/1.1/DTD/svg11.dtd">
<svg version="1.1" xmlns="http://www.w3.org/2000/svg" xmlns:xlink="http://www.w3.org/1999/xlink" width="33" height="32" viewBox="0 0 33 32">
<path fill="#f27321" d="M7.824 25.009v-12.067l-7.799 6.041 7.799 6.026z"></path>
<path fill="#f27321" d="M7.829 12.106v-12.089l-7.804 6.010 7.804 6.079z"></path>
<path fill="#f27321" d="M16.049 18.564v-12.1l-7.804 6.057 7.804 6.043z"></path>
<path fill="#f27321" d="M0.046 18.549v-12.068l7.783 6.040-7.783 6.028z"></path>
<path fill="#f27321" d="M8.287 12.118v-12.102l7.783 6.021-7.783 6.081z"></path>
<path fill="#f27321" d="M24.699 25.009v-12.083l7.762 6.058-7.762 6.026z"></path>
<path fill="#f27321" d="M24.703 12.053v-12.052l7.758 5.93-7.758 6.123z"></path>
<path fill="#f27321" d="M16.463 18.549v-12.068l7.788 6.040-7.788 6.028z"></path>
<path opacity="0.5" fill="#f27321" d="M16.049 31.54v-12.085l-7.756 6.040 7.756 6.045z"></path>
<path opacity="0.5" fill="#f27321" d="M24.219 25.073v-12.114l-7.788 6.058 7.788 6.057z"></path>
<path opacity="0.5" fill="#f27321" d="M16.463 31.54v-12.071l7.772 6.043-7.772 6.028z"></path>
<path opacity="0.5" fill="#f27321" d="M8.287 25.073v-12.082l7.794 6.015-7.794 6.067z"></path>
<path fill="#f27321" d="M32.461 18.525v-12.142l-7.784 6.118 7.784 6.025z"></path>
<path fill="#f27321" d="M24.223 12.1v-12.083l-7.776 6.010 7.776 6.073z"></path>
</svg>
