<?xml version="1.0" encoding="utf-8"?>
<!-- Generated by IcoMoon.io -->
<!DOCTYPE svg PUBLIC "-//W3C//DTD SVG 1.1//EN" "http://www.w3.org/Graphics/SVG/1.1/DTD/svg11.dtd">
<svg version="1.1" xmlns="http://www.w3.org/2000/svg" xmlns:xlink="http://www.w3.org/1999/xlink" width="32" height="32" viewBox="0 0 32 32">
<path fill="#f27321" d="M1.6 0h28.8c0.884 0 1.6 0.716 1.6 1.6v28.8c0 0.884-0.716 1.6-1.6 1.6h-28.8c-0.884 0-1.6-0.716-1.6-1.6v-28.8c0-0.884 0.716-1.6 1.6-1.6z"></path>
<path fill="#fff" d="M9.646 23.694v-9.503l-6.066 4.758 6.066 4.745z"></path>
<path fill="#fff" d="M9.65 13.533v-9.52l-6.070 4.733 6.070 4.788z"></path>
<path fill="#fff" d="M16.043 18.617v-9.528l-6.070 4.77 6.070 4.758z"></path>
<path fill="#fff" d="M3.596 18.606v-9.504l6.054 4.756-6.054 4.747z"></path>
<path fill="#fff" d="M10.006 13.542v-9.53l6.054 4.741-6.054 4.788z"></path>
<path fill="#fff" d="M22.771 23.694v-9.516l6.037 4.77-6.037 4.745z"></path>
<path fill="#fff" d="M22.774 13.491v-9.491l6.034 4.669-6.034 4.822z"></path>
<path fill="#fff" d="M16.365 18.606v-9.504l6.057 4.756-6.057 4.747z"></path>
<path opacity="0.5" fill="#fff" d="M16.043 28.837v-9.517l-6.033 4.757 6.033 4.76z"></path>
<path opacity="0.5" fill="#fff" d="M22.398 23.744v-9.54l-6.057 4.77 6.057 4.77z"></path>
<path opacity="0.5" fill="#fff" d="M16.365 28.837v-9.506l6.045 4.76-6.045 4.747z"></path>
<path opacity="0.5" fill="#fff" d="M10.006 23.744v-9.515l6.062 4.737-6.062 4.778z"></path>
<path fill="#fff" d="M28.808 18.588v-9.562l-6.054 4.818 6.054 4.744z"></path>
<path fill="#fff" d="M22.401 13.528v-9.516l-6.048 4.733 6.048 4.783z"></path>
</svg>
