<?xml version="1.0" encoding="utf-8"?>
<!-- Generated by IcoMoon.io -->
<!DOCTYPE svg PUBLIC "-//W3C//DTD SVG 1.1//EN" "http://www.w3.org/Graphics/SVG/1.1/DTD/svg11.dtd">
<svg version="1.1" xmlns="http://www.w3.org/2000/svg" xmlns:xlink="http://www.w3.org/1999/xlink" width="32" height="32" viewBox="0 0 32 32">
<path fill="#191e23" d="M1.2 0h29.6c0.663 0 1.2 0.537 1.2 1.2v29.6c0 0.663-0.537 1.2-1.2 1.2h-29.6c-0.663 0-1.2-0.537-1.2-1.2v-29.6c0-0.663 0.537-1.2 1.2-1.2z"></path>
<path fill="#fff" d="M22.481 6.526c-0.66 0.221-2.069 1.632-0.282 4.15s0.729 5.386 0.729 5.386l-1.557 5.305-3.92-11.972c0 0 1.107-0.085 1.265-0.109s0.422-0.184 0.378-0.524c-0.044-0.34-0.287-0.389-0.519-0.377-0.116 0.006-1.483 0.112-2.84 0.112-1.349-0-2.689-0.107-2.785-0.112-0.192-0.011-0.468 0.011-0.535 0.319-0.048 0.258 0.072 0.545 0.343 0.578s0.090 0.008 1.186 0.113c0 0 0.745 2.096 1.688 4.747l-2.387 7.277-3.933-12.024c0 0 1.107-0.085 1.265-0.109s0.422-0.184 0.378-0.524c-0.044-0.34-0.287-0.389-0.519-0.377-0.116 0.006-1.483 0.112-2.841 0.112-1.349-0-2.689-0.107-2.785-0.112-0.192-0.011-0.468 0.011-0.535 0.319-0.048 0.258 0.072 0.545 0.343 0.578s0.090 0.008 1.186 0.113c0 0 5.233 14.714 5.51 15.503s1.426 0.994 1.754-0.038c0.242-0.763 2.123-6.37 3.088-9.242 1.465 4.119 3.143 8.842 3.297 9.28 0.278 0.789 1.427 0.994 1.754-0.038s2.178-6.36 3.766-11.131c1.404-4.348 0.101-8.070-2.493-7.203v0z"></path>
</svg>
