<?xml version="1.0" encoding="utf-8"?>
<!-- Generated by IcoMoon.io -->
<!DOCTYPE svg PUBLIC "-//W3C//DTD SVG 1.1//EN" "http://www.w3.org/Graphics/SVG/1.1/DTD/svg11.dtd">
<svg version="1.1" xmlns="http://www.w3.org/2000/svg" xmlns:xlink="http://www.w3.org/1999/xlink" width="32" height="32" viewBox="0 0 32 32">
<path fill="#444" d="M15.79 0.243c-8.669 0-15.698 7.029-15.698 15.698s7.029 15.698 15.698 15.698c8.668 0 15.698-7.032 15.698-15.698 0-8.665-7.029-15.698-15.698-15.698v0zM2.334 15.941c0-1.899 0.417-3.704 1.166-5.334l6.419 17.127c-4.489-2.123-7.585-6.607-7.585-11.793v0zM15.79 29.046c-1.321 0-2.596-0.189-3.802-0.534l4.038-11.435 4.137 11.032c0.027 0.063 0.063 0.12 0.095 0.185-1.399 0.491-2.902 0.752-4.469 0.752v0zM17.645 9.797c0.809-0.041 1.54-0.125 1.54-0.125 0.724-0.085 0.642-1.12-0.088-1.080 0 0-2.178 0.167-3.585 0.167-1.321 0-3.544-0.167-3.544-0.167-0.725-0.040-0.811 1.039-0.086 1.080 0 0 0.687 0.084 1.412 0.125l2.096 5.595-2.945 8.6-4.898-14.195c0.811-0.041 1.54-0.125 1.54-0.125 0.725-0.083 0.641-1.12-0.087-1.079 0 0-2.178 0.166-3.585 0.166-0.252 0-0.549-0.007-0.868-0.016 2.406-3.557 6.542-5.905 11.242-5.905 3.506 0 6.692 1.304 9.087 3.44-0.059-0.004-0.113-0.011-0.173-0.011-1.321 0-2.26 1.119-2.26 2.327 0 1.079 0.641 1.993 1.321 3.073 0.513 0.872 1.11 1.997 1.11 3.614 0 1.12-0.441 2.422-1.023 4.236l-1.344 4.368-4.863-14.087zM22.555 27.268l4.113-11.573c0.767-1.87 1.019-3.362 1.019-4.692 0-0.484-0.038-0.93-0.088-1.348 1.046 1.866 1.648 4.010 1.648 6.287-0.002 4.833-2.692 9.055-6.692 11.326v0z"></path>
</svg>
